/* XPM */
static char *_X__ia_S[] = {
/* columns rows colors chars-per-pixel */
"40 40 224 2",
"   c #000301",
".  c #090300",
"X  c #020A03",
"o  c #0A0C04",
"O  c #02070A",
"+  c #010B0A",
"@  c #0B0D09",
"#  c #160500",
"$  c #1A0D00",
"%  c #110E09",
"&  c #061007",
"*  c #0C1004",
"=  c #02110C",
"-  c #0B120B",
";  c #0E190E",
":  c #121204",
">  c #151B01",
",  c #1C1B07",
"<  c #12140C",
"1  c #19140C",
"2  c #14190C",
"3  c #1B1A0C",
"4  c #0B0F11",
"5  c #041312",
"6  c #0A1412",
"7  c #041A14",
"8  c #0C1A13",
"9  c #0C1618",
"0  c #0B1B19",
"q  c #121512",
"w  c #1E1510",
"e  c #131A13",
"r  c #1A1C14",
"t  c #19171A",
"y  c #121C19",
"u  c #1A1D1A",
"i  c #25120B",
"p  c #201D0D",
"a  c #211D11",
"s  c #291C15",
"d  c #221E1D",
"f  c #1D220C",
"g  c #0D211B",
"h  c #152115",
"j  c #1C2113",
"k  c #13221B",
"l  c #1B221B",
"z  c #1E281F",
"x  c #23210E",
"c  c #222214",
"v  c #292614",
"b  c #242914",
"n  c #2B2815",
"m  c #22241B",
"M  c #292519",
"N  c #23281B",
"B  c #2B2B1B",
"V  c #31221B",
"C  c #302C1C",
"Z  c #2C301C",
"A  c #32301B",
"S  c #3A351F",
"D  c #1B1D20",
"F  c #0E2723",
"G  c #142321",
"H  c #1B2423",
"J  c #132A24",
"K  c #1B2A23",
"L  c #1B2628",
"P  c #172A29",
"I  c #1D2B2A",
"U  c #1D3126",
"Y  c #1B312D",
"T  c #1F392E",
"R  c #1E3731",
"E  c #1E3A36",
"W  c #222621",
"Q  c #232B23",
"!  c #2A2B23",
"~  c #232728",
"^  c #222C2A",
"/  c #2A2C2A",
"(  c #322F28",
")  c #243026",
"_  c #2B3025",
"`  c #25312B",
"'  c #2B332B",
"]  c #20382B",
"[  c #2B392E",
"{  c #323222",
"}  c #3C3626",
"|  c #313826",
" . c #32332B",
".. c #38332D",
"X. c #363A2C",
"o. c #393D2B",
"O. c #2B2C30",
"+. c #253432",
"@. c #2A3531",
"#. c #233A32",
"$. c #2C3A34",
"%. c #2C3C3B",
"&. c #323531",
"*. c #3B3530",
"=. c #333B33",
"-. c #3A3C34",
";. c #323D3B",
":. c #3A3D3A",
">. c #41392E",
",. c #2B423A",
"<. c #2E483D",
"1. c #344035",
"2. c #3A4236",
"3. c #33433C",
"4. c #3A433B",
"5. c #46402A",
"6. c #414236",
"7. c #41433E",
"8. c #404839",
"9. c #504D3E",
"0. c #2C4541",
"q. c #2E4A43",
"w. c #344241",
"e. c #394443",
"r. c #344B44",
"t. c #3B4A44",
"y. c #364D49",
"u. c #3B4C4A",
"i. c #3A524C",
"p. c #3D5552",
"a. c #3E5954",
"s. c #434741",
"d. c #4C4741",
"f. c #444941",
"g. c #4A4A44",
"h. c #45464A",
"j. c #414D49",
"k. c #484E4A",
"l. c #455147",
"z. c #4F5345",
"x. c #45524B",
"c. c #4B554C",
"v. c #50544D",
"b. c #445450",
"n. c #485451",
"m. c #445B53",
"M. c #4B5A54",
"N. c #405D58",
"B. c #4B5D5A",
"V. c #525654",
"C. c #535A53",
"Z. c #595E56",
"A. c #525E5B",
"S. c #5C5E59",
"D. c #4B6057",
"F. c #46625A",
"G. c #4C625C",
"H. c #4E6A5E",
"J. c #516154",
"K. c #53625B",
"L. c #5B645D",
"P. c #58695F",
"I. c #61605B",
"U. c #6A6C5E",
"Y. c #4E6C62",
"T. c #536462",
"R. c #586762",
"E. c #526964",
"W. c #5A6A62",
"Q. c #546C69",
"!. c #5C6D6A",
"~. c #5E7267",
"^. c #53726A",
"/. c #5B746D",
"(. c #5B7570",
"). c #606760",
"_. c #626B63",
"`. c #626C6A",
"'. c #63746D",
"]. c #6A746C",
"[. c #637371",
"{. c #6A7577",
"}. c #637973",
"|. c #6A7974",
" X c #637C79",
".X c #6C7D79",
"XX c #737A72",
"oX c #737D7A",
"OX c #628178",
"+X c #6B827C",
"@X c #6D887F",
"#X c #7A8577",
"$X c #73837D",
"%X c #7B807A",
"&X c #71887E",
"*X c #6C8281",
"=X c #748481",
"-X c #7A8480",
";X c #748983",
":X c #738D89",
">X c #798C89",
",X c #6F9087",
"<X c #709186",
"1X c #76938B",
"2X c #7B928C",
"3X c #7D988F",
"4X c #7B9691",
"5X c #828C86",
"6X c #88938F",
"7X c #879596",
"8X c #849A97",
"9X c #839E99",
"0X c #929C9A",
"qX c #82A39A",
"wX c #88A89D",
"eX c #90A59E",
"rX c #8EABA6",
"tX c #92A5A3",
"yX c #97A9AB",
"uX c #90B1A6",
"iX c #93B3AA",
"pX c #9AB8AE",
"aX c #A4C1BC",
"sX c #A6CAC0",
/* pixels */
"M o . r B c e l Q H c.X %.>X0 5 6 q 4 4 y ^ ;.g X k t.'.W.4.l 2 f S v n c . u q ",
": , j c b _ ! m 4.l ` $X9 + 9 O L O D ~ u.|.B.3.'.'.B.l X X e 2 b n A b o 2 o t ",
". , b j r m _ ! h R.X +.k 5 0 w.b.B.u.*X3X>XeX(.E.P k 8 ' o W -.f f N B o ! X l ",
"p : 1 c r * j 4.& z 3.6 5 t.[.;Xw.Y (.*X;X1Xi.<.k g z X @ q ..- & h h X.* ' . r ",
"{ c c B B e j  .].K Q ^ Q.oX+.J u.a.0.(.Q.q.a.k 7 X = [ oX-.! q 8 [ - =.* r @ : ",
"a B _ B c B l e - r @.$XL I %.u.F P (.Q.%.E & g D.}.&X1.Q l 7.s.y @.X N o % d a ",
"p B ! c j b N r - >X` +.k 5 + +.!.{.y.P O 7 /.<X(.] h <.~.M.@.k 6 9 X q % a s V ",
"} v a ! b e N 4.Q Q ^ ` K %.[.t.e.D 5 O I Q.(.m.<.H.OX'.<.U 7 8 4 O d % 1 s # i ",
", n Z B 2 2 h X h U [ l.#X2 3 j ! . ! e X %.i.(.1X(.p.P O 4 u O I Q ` l 2 z.  ..",
"X.o 2 2 ' C.3.` c.M.P.2 o { B X 1 -.! q t.%.y.!.E i.y.u.w.O   L.j.^ X L.X - o.j ",
"K Q 8 x.R.M.'.t.t.X B _ > C v } c w _   ^ '.E.R  XT.p.g 9 [.oXX +.{.O 4 y d ! w ",
"8 X M.'.!.!.^ ^ & K c _ n n >.. : 3 X _.$.X A.Q.P 0.u.B.u.y ' $X4 L u.0 y / f.7.",
"+.@.5 %.%.0 %.9 ) ) r c 9.. x x 2 =.l _ e.{.%.u.G.T.+.0 %.M.` X 7X+.L D :.V.u >.",
"K 8 k.e.+.%.6 G k H 4.  / M 3 { o =.* K.e.~ @.e.%.D +.+.O K K.B.+ y e.0XO.=.u m ",
"v.v.! y   O n.T.;.O I W  .     .r X ) h 6 n.w.5 %.L O + G.u.7 k x.eX=.8 - - X 3 ",
"} d c r u @.^ 9 O I I H X u c.r 2 X ) & ;.O L !.9 D u.j.8 = r.|.G.y [ < 2.o.U.6.",
"> 1.b j <   D O.h.u . r Z b x b l ! m - l -X+ 8 I K 0 = F p.Q.r.7 X m.'.|.1.X r ",
"b B b j r W t O.O O @ e b | Z j ) e X |.X X k + U 0 ,.r.^.qX(.a.(.>X;X` X - N / ",
"x f j j q >.@ O./ O.W @ X > Z | ; L.X l g X K r.i.Q.E.qXiXrXsX:X2X%.X 8 ) r z =.",
"* b c &.q &.X ~ X   X r r 2 b 4.X U r.X & 3.}.&Xy.#.+X1X4XqXa.p.7 0 8 6 ' & N   ",
"o X.< 4.r W @ q D @ @ W W < * r P.k K z m.&XY k u.M.y. X Xy.y.5 7   + ; L.j 7.d ",
"-  .  W t q @   @ % % q l ..:.-.; h [ $Xh ,.+.3.G G !.T.;.Y O O %.M.`.6 l X ..% ",
"t D . @ % q @ @ X u / ~ u t q + [ 5X4.` K y X ^ '.`.%.t O O A.oXn.5 - H 4.d r ( ",
"D t / X X q % :.r w u u @ O @.^.x.e =.; =.4.oXV.:.u t q ~ h.;.D + ^ 3.~    .a ..",
"_   r o . I.  ! X - - X = <.F.E 5 5 B.[.6X=.W : 2  .@ ! w   q / X.c * * N  . .W ",
"N 4.l c.u r X q Q - Y %.H.qX,XOX*XyX>Xr.  8 r j ! (  .< r q t ! * 2 2 c B m r o ",
"X ) & z ; X 4.$.J.m.i.3XpXuXaX3X,Xp.5 I 9 - - *.r c  .@ < &.< W * , 3 r 2 e c ! ",
"1.Q 2.X ` 4.P.M.<.T @XwXiXiXOXY.p.F 6 X 8 @ / o . N 2 *.. 7.  r 3 x c , : 1 ! 6.",
"_ X ` & ` l.U T <.H.F.1X,XY. Xq.F O +.L -X' =.@ % o.o g.2 d   < o , v B v c a c ",
"B / X Z.) [ ; <.7 T 1XOXa.p.F Y Q.*X>X+.h & &. .1 ! o W d   @ r p p n S C M 3 1 ",
"M d.. g.X X 7 ] +X&XF.<.F ,.1XtX4X%.O e.`.C.W j o : @ . w X t u S A n v v M M M ",
". *...! Q 2.].P.D.g X g u. X{.T.%.T.[.B.K e u N 1 r w @ X ..X r A n v v n M B C ",
"r  .' =.XXm W @ @   6 K J ,.m.}.=X`.e.6 8 8 X &.' r ; u   S.  B 3 n B Z N k 8 8 ",
"4.2.S.e o l q o W / O K B.G.Y.B.%.y I 9 X @.@.- Q &.  C.o m W ! B b j l Q ^ K h ",
"f.X & ! c &.u m   / M.k ,.+Xy.,.R.;.@.5   ^ :.W - L.. e c r ' ; h e h $.x.A.j.e.",
"X _ &.4.l o -.t H X / =X%.= E.r.K H y 4 ~ ~ y V.X @ c.; X r J.2.h k @.l.M.u.^ y ",
"_ =.r X f.W -.@ W V.n.5 x.}.J m.^ ~ u q ~ 9   / I.z l o K.C.X z 6 8 K ` Q 8 + + ",
"* X &.- f.< < S.&.! I R.G.,.i.7 D O q 6 @ :.s.' - ; K W.; ) N =.K k l l t q / d.",
"2 2 =.X m -.m @   - x.t.` y.Y = 9 . / / t W t   Q '.=.=.& 8 X X M.4.' / c a M >.",
"l e & ' -   &.W u 8 & +.,.7 F G.4 t u < t O 6 _.=.z ' h 1.1.D.c.[ j r m B p $ $ "
};
